G04 #@! TF.GenerationSoftware,KiCad,Pcbnew,(5.1.6)-1*
G04 #@! TF.CreationDate,2021-02-01T10:29:45-05:00*
G04 #@! TF.ProjectId,keyboard,6b657962-6f61-4726-942e-6b696361645f,rev?*
G04 #@! TF.SameCoordinates,Original*
G04 #@! TF.FileFunction,Legend,Bot*
G04 #@! TF.FilePolarity,Positive*
%FSLAX46Y46*%
G04 Gerber Fmt 4.6, Leading zero omitted, Abs format (unit mm)*
G04 Created by KiCad (PCBNEW (5.1.6)-1) date 2021-02-01 10:29:45*
%MOMM*%
%LPD*%
G01*
G04 APERTURE LIST*
%ADD10C,1.000000*%
%ADD11C,0.100000*%
G04 APERTURE END LIST*
D10*
X79899985Y-143672342D02*
X79899985Y-153672342D01*
X79899985Y-144148533D02*
X78947604Y-143672342D01*
X77042842Y-143672342D01*
X76090461Y-144148533D01*
X75614271Y-144624723D01*
X75138080Y-145577104D01*
X75138080Y-148434247D01*
X75614271Y-149386628D01*
X76090461Y-149862819D01*
X77042842Y-150339009D01*
X78947604Y-150339009D01*
X79899985Y-149862819D01*
X66566652Y-150339009D02*
X66566652Y-145100914D01*
X67042842Y-144148533D01*
X67995223Y-143672342D01*
X69899985Y-143672342D01*
X70852366Y-144148533D01*
X66566652Y-149862819D02*
X67519033Y-150339009D01*
X69899985Y-150339009D01*
X70852366Y-149862819D01*
X71328557Y-148910438D01*
X71328557Y-147958057D01*
X70852366Y-147005676D01*
X69899985Y-146529485D01*
X67519033Y-146529485D01*
X66566652Y-146053295D01*
X61804747Y-150339009D02*
X61804747Y-143672342D01*
X61804747Y-140339009D02*
X62280938Y-140815200D01*
X61804747Y-141291390D01*
X61328557Y-140815200D01*
X61804747Y-140339009D01*
X61804747Y-141291390D01*
X57042842Y-143672342D02*
X57042842Y-150339009D01*
X57042842Y-144624723D02*
X56566652Y-144148533D01*
X55614271Y-143672342D01*
X54185700Y-143672342D01*
X53233319Y-144148533D01*
X52757128Y-145100914D01*
X52757128Y-150339009D01*
X47995223Y-149386628D02*
X47519033Y-149862819D01*
X47995223Y-150339009D01*
X48471414Y-149862819D01*
X47995223Y-149386628D01*
X47995223Y-150339009D01*
X43233319Y-149386628D02*
X42757128Y-149862819D01*
X43233319Y-150339009D01*
X43709509Y-149862819D01*
X43233319Y-149386628D01*
X43233319Y-150339009D01*
X38471414Y-149386628D02*
X37995223Y-149862819D01*
X38471414Y-150339009D01*
X38947604Y-149862819D01*
X38471414Y-149386628D01*
X38471414Y-150339009D01*
D11*
X26982391Y-70064925D02*
X29798746Y-71690821D01*
X22759855Y-67624085D02*
X24166036Y-68439031D01*
X25576210Y-61120502D02*
X26982391Y-70064925D01*
X24166036Y-60309551D02*
X25576210Y-61120502D01*
X24166036Y-68439031D02*
X24166036Y-60309551D01*
X41223957Y-70332582D02*
X41379756Y-70244695D01*
X34189061Y-74387334D02*
X41223957Y-70332582D01*
X34033263Y-74475221D02*
X34189061Y-74387334D01*
X32471285Y-73572388D02*
X33877465Y-74387334D01*
X26706746Y-70252685D02*
X26834581Y-70324592D01*
X33877465Y-74387334D02*
X34033263Y-74475221D01*
X31488557Y-71063635D02*
X31516521Y-70927810D01*
X26682777Y-70108872D02*
X26706746Y-70252685D01*
X26834581Y-70324592D02*
X29650936Y-71950488D01*
X31516521Y-70927810D02*
X32315487Y-66813135D01*
X25891801Y-65087371D02*
X26682777Y-70108872D01*
X32315487Y-73484501D02*
X32471285Y-73572388D01*
X32315487Y-66813135D02*
X32315487Y-73308728D01*
X29650936Y-71950488D02*
X29806734Y-72038375D01*
X32315487Y-73308728D02*
X32315487Y-73484501D01*
X29806734Y-72038375D02*
X29962532Y-71950488D01*
X31368712Y-71135542D02*
X31488557Y-71063635D01*
X29962532Y-71950488D02*
X31368712Y-71135542D01*
X25887806Y-67624088D02*
X25891801Y-65087371D01*
X22456247Y-56067045D02*
X22456247Y-56242817D01*
X22456247Y-67624088D02*
X22456247Y-67799861D01*
X22456247Y-56242817D02*
X22456247Y-67624088D01*
X22612045Y-55979158D02*
X22456247Y-56067045D01*
X24018226Y-55164213D02*
X22612045Y-55979158D01*
X24182013Y-68443028D02*
X22767843Y-67624088D01*
X26998368Y-70068924D02*
X25604173Y-61216381D01*
X31220904Y-70879874D02*
X29814723Y-71694820D01*
X34033264Y-74127670D02*
X32627084Y-73312724D01*
X32627084Y-65187241D02*
X32355435Y-65031442D01*
X24174024Y-55076327D02*
X24018226Y-55164213D01*
X25588193Y-67628081D02*
X24182013Y-68443028D01*
X25604173Y-61216381D02*
X25588193Y-67628081D01*
X41060171Y-58683659D02*
X41060171Y-70064928D01*
X22767843Y-67624088D02*
X22767843Y-56242817D01*
X32627084Y-73312724D02*
X32627084Y-65187241D01*
X41060171Y-70064928D02*
X34033264Y-74127670D01*
X25887806Y-67799861D02*
X25887806Y-67624088D01*
X25736003Y-67887748D02*
X25887806Y-67799861D01*
X24329822Y-68702694D02*
X25736003Y-67887748D01*
X24174024Y-68790581D02*
X24329822Y-68702694D01*
X24018226Y-68702694D02*
X24174024Y-68790581D01*
X22612045Y-67887748D02*
X24018226Y-68702694D01*
X29814723Y-71694820D02*
X26998368Y-70068924D01*
X22456247Y-67799861D02*
X22612045Y-67887748D01*
X22767843Y-56242817D02*
X24174024Y-55431866D01*
X32355435Y-65031442D02*
X31220904Y-70879874D01*
X36841630Y-69253978D02*
X38247810Y-68439031D01*
X31212915Y-59494607D02*
X29798746Y-60309551D01*
X35435450Y-68439031D02*
X36841630Y-69253978D01*
X32615100Y-65187239D02*
X32615100Y-73316718D01*
X36841630Y-70875878D02*
X36841630Y-69249981D01*
X35435450Y-61935449D02*
X35435450Y-68439031D01*
X41064166Y-58683656D02*
X39653991Y-59494606D01*
X24174024Y-55431866D02*
X28396560Y-57872707D01*
X31208920Y-64372293D02*
X32615100Y-65187239D01*
X31212915Y-59494607D02*
X35435450Y-61935449D01*
X29782766Y-60309552D02*
X31212915Y-59494607D01*
X34025275Y-62746397D02*
X29798746Y-60309551D01*
X39653991Y-69249981D02*
X36841630Y-70875878D01*
X29798746Y-60309551D02*
X28392565Y-69249981D01*
X34025275Y-74127668D02*
X34025275Y-62746397D01*
X29798746Y-71690821D02*
X31208920Y-64372293D01*
X29199521Y-64152579D02*
X29782766Y-60309552D01*
X28392565Y-69249981D02*
X26982391Y-58683656D01*
X26982391Y-58683656D02*
X22759855Y-56242815D01*
X35435450Y-61935449D02*
X31212915Y-59494607D01*
X32615100Y-73316718D02*
X34025275Y-74127668D01*
X41064166Y-70064925D02*
X41064166Y-58683656D01*
X35431455Y-73316718D02*
X35435450Y-61935449D01*
X35431455Y-73164352D02*
X35431455Y-73316718D01*
X35431455Y-70064925D02*
X35431455Y-73164352D01*
X35431455Y-73316718D02*
X41064166Y-70064925D01*
X22759855Y-56242815D02*
X22759855Y-67624085D01*
X36841630Y-69249981D02*
X35431455Y-70064925D01*
X39653991Y-59494606D02*
X39653991Y-69249981D01*
X39653991Y-57868714D02*
X41060171Y-58683659D01*
X28396560Y-57872707D02*
X29199521Y-64152579D01*
X38247810Y-58683659D02*
X39653991Y-57868714D01*
X38247810Y-68439031D02*
X38247810Y-58683659D01*
X29507122Y-60117801D02*
X29483153Y-60265610D01*
X35747045Y-61759678D02*
X35591247Y-61671791D01*
X35591247Y-61671791D02*
X31368712Y-59230950D01*
X41379756Y-70244695D02*
X41379756Y-70068921D01*
X24333817Y-55168208D02*
X24174024Y-55076327D01*
X28708156Y-57836754D02*
X28688182Y-57684951D01*
X37944202Y-68263260D02*
X36845624Y-68898439D01*
X29483153Y-60265610D02*
X29231479Y-61931455D01*
X24174024Y-55076327D02*
X24174024Y-55076327D01*
X39506180Y-57605055D02*
X38100000Y-58420000D01*
X28556353Y-57609050D02*
X24333817Y-55168208D01*
X41379756Y-58507886D02*
X41223957Y-58420000D01*
X31368712Y-59230950D02*
X31216909Y-59143063D01*
X37944202Y-58683659D02*
X37944202Y-68263260D01*
X36845624Y-68898439D02*
X35747045Y-68263260D01*
X41379756Y-58683659D02*
X41379756Y-58507886D01*
X31216909Y-59143063D02*
X31065106Y-59230950D01*
X41379756Y-70068921D02*
X41379756Y-58683659D01*
X37944202Y-58507886D02*
X37944202Y-58683659D01*
X39661979Y-57517168D02*
X39506180Y-57605055D01*
X35747045Y-68263260D02*
X35747045Y-61935450D01*
X39817777Y-57605055D02*
X39661979Y-57517168D01*
X28688182Y-57684951D02*
X28556353Y-57609050D01*
X31065106Y-59230950D02*
X29634957Y-60045895D01*
X35747045Y-61935450D02*
X35747045Y-61759678D01*
X29231479Y-61931455D02*
X28708156Y-57836754D01*
X29634957Y-60045895D02*
X29507122Y-60117801D01*
X41223957Y-58420000D02*
X39817777Y-57605055D01*
X38100000Y-58420000D02*
X37944202Y-58507886D01*
M02*
