M48
; DRILL file {KiCad (5.1.6)-1} date 02/01/21 10:29:43
; FORMAT={-:-/ absolute / metric / decimal}
; #@! TF.CreationDate,2021-02-01T10:29:43-05:00
; #@! TF.GenerationSoftware,Kicad,Pcbnew,(5.1.6)-1
FMAT,2
METRIC
T1C0.400
T2C0.600
T3C0.700
T4C0.800
T5C0.900
T6C1.016
T7C1.100
T8C1.500
T9C2.016
T10C0.650
T11C1.700
T12C3.050
T13C4.000
%
G90
G05
T1
X39.38Y-159.78
X58.63Y-160.41
X99.736Y-59.865
X112.75Y-54.24
X114.0Y-162.25
X116.67Y-62.97
X123.74Y-162.05
X142.436Y-58.865
X159.936Y-58.565
X173.036Y-58.365
X185.836Y-58.165
X201.136Y-57.665
X207.85Y-162.34
X218.73Y-162.28
X218.83Y-55.04
X222.25Y-58.42
X231.936Y-57.365
X233.686Y-27.815
X234.95Y-29.21
X236.22Y-29.21
X246.21Y-35.61
X250.61Y-50.19
X256.93Y-46.43
X264.64Y-46.98
X265.5Y-44.69
X266.43Y-47.85
X272.75Y-48.77
X275.9Y-50.36
X279.5Y-57.1
X281.69Y-48.64
X283.34Y-44.68
X285.75Y-44.45
X286.85Y-160.17
X291.45Y-56.99
X292.08Y-45.74
X299.836Y-29.265
X301.236Y-34.365
X302.17Y-48.98
X305.9Y-160.59
X308.85Y-56.88
X309.59Y-32.56
X309.66Y-49.08
T2
X270.17Y-24.52
X271.67Y-24.52
T3
X266.918Y-29.428
X270.51Y-33.02
X222.27Y-25.92
X227.35Y-25.92
X222.27Y-23.38
X227.35Y-23.38
X253.936Y-23.585
X253.936Y-28.665
X245.11Y-31.75
X250.19Y-31.75
X267.97Y-26.67
X271.562Y-30.262
X222.31Y-30.23
X222.31Y-35.31
X225.29Y-29.48
X230.39Y-29.48
T4
X287.02Y-30.48
X287.02Y-32.98
X60.96Y-44.018
X60.96Y-51.638
X147.32Y-41.478
X147.32Y-49.098
X30.48Y-44.018
X30.48Y-51.638
X175.26Y-38.1
X175.26Y-45.72
X101.6Y-38.1
X101.6Y-45.72
X86.36Y-38.1
X86.36Y-45.72
X78.74Y-46.558
X78.74Y-54.178
X241.3Y-46.558
X241.3Y-54.178
X205.74Y-41.478
X205.74Y-49.098
X203.2Y-38.1
X203.2Y-45.72
X198.12Y-49.098
X198.12Y-56.718
X58.42Y-41.478
X58.42Y-49.098
X137.16Y-46.558
X137.16Y-54.178
X195.58Y-46.558
X195.58Y-54.178
X66.04Y-49.098
X66.04Y-56.718
X132.08Y-41.478
X132.08Y-49.098
X33.02Y-46.558
X33.02Y-54.178
X167.64Y-46.558
X167.64Y-54.178
X81.28Y-49.098
X81.28Y-56.718
X119.38Y-44.018
X119.38Y-51.638
X76.2Y-44.018
X76.2Y-51.638
X238.76Y-44.018
X238.76Y-51.638
X210.82Y-46.558
X210.82Y-54.178
X35.56Y-49.098
X35.56Y-56.718
X154.94Y-49.098
X154.94Y-56.718
X63.5Y-46.558
X63.5Y-54.178
X139.7Y-49.098
X139.7Y-56.718
X287.06Y-27.94
X289.56Y-27.94
X144.78Y-38.1
X144.78Y-45.72
X93.98Y-46.558
X93.98Y-54.178
X73.66Y-41.478
X73.66Y-49.098
X91.44Y-44.018
X91.44Y-51.638
X193.04Y-44.018
X193.04Y-51.638
X243.84Y-49.098
X243.84Y-56.718
X27.94Y-41.478
X27.94Y-49.098
X134.62Y-44.018
X134.62Y-51.638
X50.8Y-49.098
X50.8Y-56.718
X165.1Y-44.018
X165.1Y-51.638
X162.56Y-41.478
X162.56Y-49.098
X235.191Y-32.65
X235.191Y-35.15
X88.9Y-41.478
X88.9Y-49.098
X116.84Y-41.478
X116.84Y-49.098
X106.68Y-44.018
X106.68Y-51.638
X236.22Y-41.478
X236.22Y-49.098
X213.36Y-49.098
X213.36Y-56.718
X55.88Y-38.1
X55.88Y-45.72
X149.86Y-44.018
X149.86Y-51.638
X260.35Y-36.83
X260.35Y-52.07
X262.89Y-36.83
X262.89Y-52.07
X265.43Y-36.83
X265.43Y-52.07
X267.97Y-36.83
X267.97Y-52.07
X270.51Y-36.83
X270.51Y-52.07
X273.05Y-36.83
X273.05Y-52.07
X275.59Y-36.83
X275.59Y-52.07
X278.13Y-36.83
X278.13Y-52.07
X280.67Y-36.83
X280.67Y-52.07
X283.21Y-36.83
X283.21Y-52.07
X285.75Y-36.83
X285.75Y-52.07
X288.29Y-36.83
X288.29Y-52.07
X290.83Y-36.83
X290.83Y-52.07
X293.37Y-36.83
X293.37Y-52.07
X295.91Y-36.83
X295.91Y-52.07
X298.45Y-36.83
X298.45Y-52.07
X300.99Y-36.83
X300.99Y-52.07
X303.53Y-36.83
X303.53Y-52.07
X306.07Y-36.83
X306.07Y-52.07
X308.61Y-36.83
X308.61Y-52.07
X45.72Y-44.018
X45.72Y-51.638
X182.88Y-46.558
X182.88Y-54.178
X160.02Y-38.1
X160.02Y-45.72
X124.46Y-49.098
X124.46Y-56.718
X114.3Y-38.1
X114.3Y-45.72
X220.98Y-41.478
X220.98Y-49.098
X223.52Y-44.018
X223.52Y-51.638
X187.96Y-38.1
X187.96Y-45.72
X25.4Y-38.1
X25.4Y-45.72
X152.4Y-46.558
X152.4Y-54.178
X257.5Y-24.0
X262.58Y-24.0
X43.18Y-41.478
X43.18Y-49.098
X180.34Y-44.018
X180.34Y-51.638
X121.92Y-46.558
X121.92Y-54.178
X109.22Y-46.558
X109.22Y-54.178
X218.44Y-38.1
X218.44Y-45.72
X277.06Y-31.75
X281.94Y-31.75
X228.6Y-49.098
X228.6Y-56.718
X170.18Y-49.098
X170.18Y-56.718
X48.26Y-46.558
X48.26Y-54.178
X257.44Y-28.24
X262.52Y-28.24
X71.12Y-38.1
X71.12Y-45.72
X129.54Y-38.1
X129.54Y-45.72
X233.68Y-38.1
X233.68Y-45.72
X40.64Y-38.1
X40.64Y-45.72
X177.8Y-41.478
X177.8Y-49.098
X232.041Y-32.65
X232.041Y-35.15
X96.52Y-49.098
X96.52Y-56.718
X104.14Y-41.478
X104.14Y-49.098
X190.5Y-41.478
X190.5Y-49.098
X226.06Y-46.558
X226.06Y-54.178
X208.28Y-44.018
X208.28Y-51.638
T5
X227.04Y-32.74
X227.04Y-35.28
T6
X302.266Y-25.925
X302.266Y-28.465
X302.266Y-31.005
X304.806Y-25.925
X304.806Y-28.465
X304.806Y-31.005
T7
X243.84Y-24.14
X243.84Y-28.64
X250.34Y-24.14
X250.34Y-28.64
X293.836Y-25.265
X293.836Y-31.765
X298.336Y-25.265
X298.336Y-31.765
T8
X277.495Y-102.108
X283.845Y-99.568
X220.345Y-140.208
X226.695Y-137.668
X296.545Y-159.258
X302.895Y-156.718
X258.445Y-159.258
X264.795Y-156.718
X182.245Y-159.258
X188.595Y-156.718
X125.095Y-140.208
X131.445Y-137.668
X163.195Y-159.258
X169.545Y-156.718
X239.395Y-140.208
X245.745Y-137.668
X144.145Y-102.108
X150.495Y-99.568
X258.445Y-102.108
X264.795Y-99.568
X67.945Y-121.158
X74.295Y-118.618
X106.045Y-121.158
X112.395Y-118.618
X296.545Y-140.208
X302.895Y-137.668
X277.495Y-121.158
X283.845Y-118.618
X67.945Y-83.058
X74.295Y-80.518
X29.845Y-121.158
X36.195Y-118.618
X106.045Y-83.058
X112.395Y-80.518
X125.095Y-83.058
X131.445Y-80.518
X277.495Y-83.058
X283.845Y-80.518
X239.395Y-159.258
X245.745Y-156.718
X182.245Y-102.108
X188.595Y-99.568
X48.895Y-159.258
X55.245Y-156.718
X182.245Y-140.208
X188.595Y-137.668
X125.095Y-121.158
X131.445Y-118.618
X29.845Y-102.108
X36.195Y-99.568
X29.845Y-140.208
X36.195Y-137.668
X258.445Y-140.208
X264.795Y-137.668
X163.195Y-140.208
X169.545Y-137.668
X86.995Y-83.058
X93.345Y-80.518
X67.945Y-159.258
X74.295Y-156.718
X48.895Y-83.058
X55.245Y-80.518
X67.945Y-140.208
X74.295Y-137.668
X220.345Y-121.158
X226.695Y-118.618
X106.045Y-102.108
X112.395Y-99.568
X29.845Y-83.058
X36.195Y-80.518
X144.145Y-83.058
X150.495Y-80.518
X296.545Y-121.158
X302.895Y-118.618
X86.995Y-159.258
X93.345Y-156.718
X239.395Y-83.058
X245.745Y-80.518
X258.445Y-83.058
X264.795Y-80.518
X201.295Y-83.058
X207.645Y-80.518
X48.895Y-121.158
X55.245Y-118.618
X144.145Y-140.208
X150.495Y-137.668
X48.895Y-140.208
X55.245Y-137.668
X106.045Y-140.208
X112.395Y-137.668
X201.295Y-140.208
X207.645Y-137.668
X163.195Y-83.058
X169.545Y-80.518
X114.3Y-151.64
X120.65Y-149.1
X209.55Y-151.64
X215.9Y-149.1
X277.495Y-140.208
X283.845Y-137.668
X86.995Y-121.158
X93.345Y-118.618
X182.245Y-83.058
X188.595Y-80.518
X163.195Y-121.158
X169.545Y-118.618
X144.145Y-121.158
X150.495Y-118.618
X86.995Y-140.208
X93.345Y-137.668
X48.895Y-102.108
X55.245Y-99.568
X258.445Y-121.158
X264.795Y-118.618
X239.395Y-121.158
X245.745Y-118.618
X201.295Y-102.108
X207.645Y-99.568
X125.095Y-102.108
X131.445Y-99.568
X277.495Y-159.258
X283.845Y-156.718
X220.345Y-83.058
X226.695Y-80.518
X163.195Y-102.108
X169.545Y-99.568
X201.295Y-121.158
X207.645Y-118.618
X182.245Y-121.158
X188.595Y-118.618
X67.945Y-102.108
X74.295Y-99.568
X220.345Y-102.108
X226.695Y-99.568
X296.545Y-102.108
X302.895Y-99.568
X86.995Y-102.108
X93.345Y-99.568
X29.845Y-159.258
X36.195Y-156.718
X296.545Y-83.058
X302.895Y-80.518
X144.145Y-159.258
X150.495Y-156.718
X239.395Y-102.108
X245.745Y-99.568
T9
X309.61Y-24.33
X254.635Y-87.565
X309.61Y-164.83
X309.61Y-67.565
X21.86Y-24.32
X309.61Y-116.198
X129.985Y-125.565
X21.86Y-67.565
X165.735Y-164.82
X197.485Y-125.57
X21.86Y-59.32
X165.735Y-24.315
X254.635Y-125.565
X72.835Y-87.57
X21.86Y-116.193
X21.86Y-164.82
X72.835Y-125.565
X129.985Y-87.57
X309.61Y-59.33
X197.485Y-87.57
T10
X232.046Y-25.42
X237.826Y-25.42
T11
X65.405Y-135.128
X75.565Y-135.128
X217.805Y-116.078
X227.965Y-116.078
X103.505Y-97.028
X113.665Y-97.028
X27.305Y-77.978
X37.465Y-77.978
X141.605Y-77.978
X151.765Y-77.978
X294.005Y-116.078
X304.165Y-116.078
X84.455Y-154.178
X94.615Y-154.178
X236.855Y-77.978
X247.015Y-77.978
X255.905Y-77.978
X266.065Y-77.978
X198.755Y-77.978
X208.915Y-77.978
X46.355Y-116.078
X56.515Y-116.078
X141.605Y-135.128
X151.765Y-135.128
X46.355Y-135.128
X56.515Y-135.128
X103.505Y-135.128
X113.665Y-135.128
X198.755Y-135.128
X208.915Y-135.128
X160.655Y-77.978
X170.815Y-77.978
X113.03Y-154.18
X123.19Y-154.18
X208.28Y-154.18
X218.44Y-154.18
X274.955Y-135.128
X285.115Y-135.128
X84.455Y-116.078
X94.615Y-116.078
X179.705Y-77.978
X189.865Y-77.978
X160.655Y-116.078
X170.815Y-116.078
X141.605Y-116.078
X151.765Y-116.078
X84.455Y-135.128
X94.615Y-135.128
X46.355Y-97.028
X56.515Y-97.028
X255.905Y-116.078
X266.065Y-116.078
X236.855Y-116.078
X247.015Y-116.078
X198.755Y-97.028
X208.915Y-97.028
X122.555Y-97.028
X132.715Y-97.028
X274.955Y-154.178
X285.115Y-154.178
X217.805Y-77.978
X227.965Y-77.978
X160.655Y-97.028
X170.815Y-97.028
X198.755Y-116.078
X208.915Y-116.078
X179.705Y-116.078
X189.865Y-116.078
X65.405Y-97.028
X75.565Y-97.028
X217.805Y-97.028
X227.965Y-97.028
X294.005Y-97.028
X304.165Y-97.028
X84.455Y-97.028
X94.615Y-97.028
X27.305Y-154.178
X37.465Y-154.178
X294.005Y-77.978
X304.165Y-77.978
X141.605Y-154.178
X151.765Y-154.178
X236.855Y-97.028
X247.015Y-97.028
X274.955Y-97.028
X285.115Y-97.028
X217.805Y-135.128
X227.965Y-135.128
X294.005Y-154.178
X304.165Y-154.178
X255.905Y-154.178
X266.065Y-154.178
X179.705Y-154.178
X189.865Y-154.178
X122.555Y-135.128
X132.715Y-135.128
X160.655Y-154.178
X170.815Y-154.178
X236.855Y-135.128
X247.015Y-135.128
X141.605Y-97.028
X151.765Y-97.028
X255.905Y-97.028
X266.065Y-97.028
X65.405Y-116.078
X75.565Y-116.078
X103.505Y-116.078
X113.665Y-116.078
X294.005Y-135.128
X304.165Y-135.128
X274.955Y-116.078
X285.115Y-116.078
X65.405Y-77.978
X75.565Y-77.978
X27.305Y-116.078
X37.465Y-116.078
X103.505Y-77.978
X113.665Y-77.978
X122.555Y-77.978
X132.715Y-77.978
X274.955Y-77.978
X285.115Y-77.978
X236.855Y-154.178
X247.015Y-154.178
X179.705Y-97.028
X189.865Y-97.028
X46.355Y-154.178
X56.515Y-154.178
X179.705Y-135.128
X189.865Y-135.128
X122.555Y-116.078
X132.715Y-116.078
X27.305Y-97.028
X37.465Y-97.028
X27.305Y-135.128
X37.465Y-135.128
X255.905Y-135.128
X266.065Y-135.128
X160.655Y-135.128
X170.815Y-135.128
X84.455Y-77.978
X94.615Y-77.978
X65.405Y-154.178
X75.565Y-154.178
X46.355Y-77.978
X56.515Y-77.978
T12
X106.21Y-147.18
X130.01Y-147.18
X201.46Y-147.18
X225.26Y-147.18
T13
X299.085Y-154.178
X260.985Y-154.178
X184.785Y-154.178
X127.635Y-135.128
X165.735Y-154.178
X241.935Y-135.128
X146.685Y-97.028
X260.985Y-97.028
X70.485Y-116.078
X108.585Y-116.078
X299.085Y-135.128
X280.035Y-116.078
X70.485Y-77.978
X32.385Y-116.078
X108.585Y-77.978
X127.635Y-77.978
X280.035Y-77.978
X241.935Y-154.178
X184.785Y-97.028
X51.435Y-154.178
X184.785Y-135.128
X127.635Y-116.078
X32.385Y-97.028
X32.385Y-135.128
X260.985Y-135.128
X165.735Y-135.128
X89.535Y-77.978
X70.485Y-154.178
X51.435Y-77.978
X70.485Y-135.128
X222.885Y-116.078
X108.585Y-97.028
X32.385Y-77.978
X146.685Y-77.978
X299.085Y-116.078
X89.535Y-154.178
X241.935Y-77.978
X260.985Y-77.978
X203.835Y-77.978
X51.435Y-116.078
X146.685Y-135.128
X51.435Y-135.128
X108.585Y-135.128
X203.835Y-135.128
X165.735Y-77.978
X106.21Y-162.42
X118.11Y-154.18
X130.01Y-162.42
X201.46Y-162.42
X213.36Y-154.18
X225.26Y-162.42
X280.035Y-135.128
X89.535Y-116.078
X184.785Y-77.978
X165.735Y-116.078
X146.685Y-116.078
X89.535Y-135.128
X51.435Y-97.028
X260.985Y-116.078
X241.935Y-116.078
X203.835Y-97.028
X127.635Y-97.028
X280.035Y-154.178
X222.885Y-77.978
X165.735Y-97.028
X203.835Y-116.078
X184.785Y-116.078
X70.485Y-97.028
X222.885Y-97.028
X299.085Y-97.028
X89.535Y-97.028
X32.385Y-154.178
X299.085Y-77.978
X146.685Y-154.178
X241.935Y-97.028
X280.035Y-97.028
X222.885Y-135.128
T2
G00X230.616Y-22.04
M15
G01X230.616Y-21.44
M16
G05
G00X230.616Y-26.47
M15
G01X230.616Y-25.37
M16
G05
G00X239.256Y-22.04
M15
G01X239.256Y-21.44
M16
G05
G00X239.256Y-26.47
M15
G01X239.256Y-25.37
M16
G05
T0
M30
