G04 #@! TF.GenerationSoftware,KiCad,Pcbnew,(5.1.6)-1*
G04 #@! TF.CreationDate,2021-02-01T10:29:45-05:00*
G04 #@! TF.ProjectId,keyboard,6b657962-6f61-4726-942e-6b696361645f,rev?*
G04 #@! TF.SameCoordinates,Original*
G04 #@! TF.FileFunction,Soldermask,Bot*
G04 #@! TF.FilePolarity,Negative*
%FSLAX46Y46*%
G04 Gerber Fmt 4.6, Leading zero omitted, Abs format (unit mm)*
G04 Created by KiCad (PCBNEW (5.1.6)-1) date 2021-02-01 10:29:45*
%MOMM*%
%LPD*%
G01*
G04 APERTURE LIST*
%ADD10C,1.700000*%
%ADD11R,1.700000X1.700000*%
%ADD12C,2.000000*%
%ADD13C,3.700000*%
%ADD14C,0.650000*%
%ADD15O,1.000000X1.600000*%
%ADD16O,1.000000X2.100000*%
%ADD17C,4.000000*%
%ADD18C,2.200000*%
%ADD19C,3.050000*%
%ADD20C,1.600000*%
%ADD21R,1.600000X1.600000*%
%ADD22O,1.600000X1.600000*%
%ADD23C,1.400000*%
%ADD24O,1.400000X1.400000*%
%ADD25C,1.500000*%
%ADD26C,1.200000*%
%ADD27R,1.200000X1.200000*%
%ADD28R,1.800000X1.800000*%
%ADD29C,1.800000*%
G04 APERTURE END LIST*
D10*
X302265700Y-25925200D03*
X304805700Y-25925200D03*
X302265700Y-28465200D03*
X304805700Y-28465200D03*
X302265700Y-31005200D03*
D11*
X304805700Y-31005200D03*
D12*
X293835700Y-25265200D03*
X298335700Y-25265200D03*
X293835700Y-31765200D03*
X298335700Y-31765200D03*
D13*
X254634999Y-125565200D03*
X254634999Y-87565200D03*
X72834999Y-125565200D03*
X72834999Y-87570000D03*
X197484999Y-125570000D03*
X197484999Y-87570000D03*
X129984999Y-125565200D03*
X129984999Y-87570000D03*
X165734999Y-164820000D03*
X165735000Y-24315200D03*
X309610000Y-116197600D03*
X21860000Y-116192600D03*
D14*
X237825700Y-25420200D03*
X232045700Y-25420200D03*
D15*
X230615700Y-21740200D03*
X239255700Y-21740200D03*
D16*
X230615700Y-25920200D03*
X239255700Y-25920200D03*
D13*
X309610000Y-67565200D03*
X21860000Y-67565200D03*
X21860000Y-59320000D03*
X309610000Y-59330000D03*
X309610000Y-24330000D03*
X309610000Y-164830000D03*
X21860000Y-164820000D03*
X21860000Y-24320000D03*
D10*
X141605000Y-77978000D03*
X151765000Y-77978000D03*
D17*
X146685000Y-77978000D03*
D18*
X150495000Y-80518000D03*
X144145000Y-83058000D03*
D10*
X198755000Y-97028000D03*
X208915000Y-97028000D03*
D17*
X203835000Y-97028000D03*
D18*
X207645000Y-99568000D03*
X201295000Y-102108000D03*
X163195000Y-83058000D03*
X169545000Y-80518000D03*
D17*
X165735000Y-77978000D03*
D10*
X170815000Y-77978000D03*
X160655000Y-77978000D03*
D18*
X67945000Y-140208000D03*
X74295000Y-137668000D03*
D17*
X70485000Y-135128000D03*
D10*
X75565000Y-135128000D03*
X65405000Y-135128000D03*
X46355000Y-135128000D03*
X56515000Y-135128000D03*
D17*
X51435000Y-135128000D03*
D18*
X55245000Y-137668000D03*
X48895000Y-140208000D03*
X67945000Y-102108000D03*
X74295000Y-99568000D03*
D17*
X70485000Y-97028000D03*
D10*
X75565000Y-97028000D03*
X65405000Y-97028000D03*
D18*
X48895000Y-159258000D03*
X55245000Y-156718000D03*
D17*
X51435000Y-154178000D03*
D10*
X56515000Y-154178000D03*
X46355000Y-154178000D03*
D18*
X106045000Y-140208000D03*
X112395000Y-137668000D03*
D17*
X108585000Y-135128000D03*
D10*
X113665000Y-135128000D03*
X103505000Y-135128000D03*
X255905000Y-116078000D03*
X266065000Y-116078000D03*
D17*
X260985000Y-116078000D03*
D18*
X264795000Y-118618000D03*
X258445000Y-121158000D03*
X220345000Y-140208000D03*
X226695000Y-137668000D03*
D17*
X222885000Y-135128000D03*
D10*
X227965000Y-135128000D03*
X217805000Y-135128000D03*
D18*
X182245000Y-102108000D03*
X188595000Y-99568000D03*
D17*
X184785000Y-97028000D03*
D10*
X189865000Y-97028000D03*
X179705000Y-97028000D03*
X217805000Y-116078000D03*
X227965000Y-116078000D03*
D17*
X222885000Y-116078000D03*
D18*
X226695000Y-118618000D03*
X220345000Y-121158000D03*
X239395000Y-121158000D03*
X245745000Y-118618000D03*
D17*
X241935000Y-116078000D03*
D10*
X247015000Y-116078000D03*
X236855000Y-116078000D03*
X198755000Y-135128000D03*
X208915000Y-135128000D03*
D17*
X203835000Y-135128000D03*
D18*
X207645000Y-137668000D03*
X201295000Y-140208000D03*
D10*
X255905000Y-97028000D03*
X266065000Y-97028000D03*
D17*
X260985000Y-97028000D03*
D18*
X264795000Y-99568000D03*
X258445000Y-102108000D03*
X277495000Y-102108000D03*
X283845000Y-99568000D03*
D17*
X280035000Y-97028000D03*
D10*
X285115000Y-97028000D03*
X274955000Y-97028000D03*
X179705000Y-135128000D03*
X189865000Y-135128000D03*
D17*
X184785000Y-135128000D03*
D18*
X188595000Y-137668000D03*
X182245000Y-140208000D03*
D10*
X179705000Y-116078000D03*
X189865000Y-116078000D03*
D17*
X184785000Y-116078000D03*
D18*
X188595000Y-118618000D03*
X182245000Y-121158000D03*
D10*
X46355000Y-97028000D03*
X56515000Y-97028000D03*
D17*
X51435000Y-97028000D03*
D18*
X55245000Y-99568000D03*
X48895000Y-102108000D03*
X106045000Y-102108000D03*
X112395000Y-99568000D03*
D17*
X108585000Y-97028000D03*
D10*
X113665000Y-97028000D03*
X103505000Y-97028000D03*
D18*
X67945000Y-121158000D03*
X74295000Y-118618000D03*
D17*
X70485000Y-116078000D03*
D10*
X75565000Y-116078000D03*
X65405000Y-116078000D03*
D18*
X277495000Y-121158000D03*
X283845000Y-118618000D03*
D17*
X280035000Y-116078000D03*
D10*
X285115000Y-116078000D03*
X274955000Y-116078000D03*
X255905000Y-154178000D03*
X266065000Y-154178000D03*
D17*
X260985000Y-154178000D03*
D18*
X264795000Y-156718000D03*
X258445000Y-159258000D03*
X296545000Y-121158000D03*
X302895000Y-118618000D03*
D17*
X299085000Y-116078000D03*
D10*
X304165000Y-116078000D03*
X294005000Y-116078000D03*
X294005000Y-154178000D03*
X304165000Y-154178000D03*
D17*
X299085000Y-154178000D03*
D18*
X302895000Y-156718000D03*
X296545000Y-159258000D03*
D10*
X294005000Y-97028000D03*
X304165000Y-97028000D03*
D17*
X299085000Y-97028000D03*
D18*
X302895000Y-99568000D03*
X296545000Y-102108000D03*
X296545000Y-140208000D03*
X302895000Y-137668000D03*
D17*
X299085000Y-135128000D03*
D10*
X304165000Y-135128000D03*
X294005000Y-135128000D03*
D18*
X277495000Y-159258000D03*
X283845000Y-156718000D03*
D17*
X280035000Y-154178000D03*
D10*
X285115000Y-154178000D03*
X274955000Y-154178000D03*
D18*
X29845000Y-140208000D03*
X36195000Y-137668000D03*
D17*
X32385000Y-135128000D03*
D10*
X37465000Y-135128000D03*
X27305000Y-135128000D03*
X274955000Y-135128000D03*
X285115000Y-135128000D03*
D17*
X280035000Y-135128000D03*
D18*
X283845000Y-137668000D03*
X277495000Y-140208000D03*
D19*
X225260000Y-147180000D03*
X201460000Y-147180000D03*
D17*
X201460000Y-162420000D03*
X225260000Y-162420000D03*
D10*
X218440000Y-154180000D03*
X208280000Y-154180000D03*
D17*
X213360000Y-154180000D03*
D18*
X209550000Y-151640000D03*
X215900000Y-149100000D03*
X29845000Y-102108000D03*
X36195000Y-99568000D03*
D17*
X32385000Y-97028000D03*
D10*
X37465000Y-97028000D03*
X27305000Y-97028000D03*
D18*
X120650000Y-149100000D03*
X114300000Y-151640000D03*
D17*
X118110000Y-154180000D03*
D10*
X113030000Y-154180000D03*
X123190000Y-154180000D03*
D17*
X130010000Y-162420000D03*
X106210000Y-162420000D03*
D19*
X106210000Y-147180000D03*
X130010000Y-147180000D03*
D10*
X217805000Y-97028000D03*
X227965000Y-97028000D03*
D17*
X222885000Y-97028000D03*
D18*
X226695000Y-99568000D03*
X220345000Y-102108000D03*
D10*
X122555000Y-97028000D03*
X132715000Y-97028000D03*
D17*
X127635000Y-97028000D03*
D18*
X131445000Y-99568000D03*
X125095000Y-102108000D03*
X29845000Y-83058000D03*
X36195000Y-80518000D03*
D17*
X32385000Y-77978000D03*
D10*
X37465000Y-77978000D03*
X27305000Y-77978000D03*
X122555000Y-116078000D03*
X132715000Y-116078000D03*
D17*
X127635000Y-116078000D03*
D18*
X131445000Y-118618000D03*
X125095000Y-121158000D03*
D10*
X103505000Y-116078000D03*
X113665000Y-116078000D03*
D17*
X108585000Y-116078000D03*
D18*
X112395000Y-118618000D03*
X106045000Y-121158000D03*
X86995000Y-159258000D03*
X93345000Y-156718000D03*
D17*
X89535000Y-154178000D03*
D10*
X94615000Y-154178000D03*
X84455000Y-154178000D03*
D18*
X144145000Y-140208000D03*
X150495000Y-137668000D03*
D17*
X146685000Y-135128000D03*
D10*
X151765000Y-135128000D03*
X141605000Y-135128000D03*
X179705000Y-77978000D03*
X189865000Y-77978000D03*
D17*
X184785000Y-77978000D03*
D18*
X188595000Y-80518000D03*
X182245000Y-83058000D03*
X239395000Y-159258000D03*
X245745000Y-156718000D03*
D17*
X241935000Y-154178000D03*
D10*
X247015000Y-154178000D03*
X236855000Y-154178000D03*
D18*
X201295000Y-121158000D03*
X207645000Y-118618000D03*
D17*
X203835000Y-116078000D03*
D10*
X208915000Y-116078000D03*
X198755000Y-116078000D03*
X141605000Y-116078000D03*
X151765000Y-116078000D03*
D17*
X146685000Y-116078000D03*
D18*
X150495000Y-118618000D03*
X144145000Y-121158000D03*
X239395000Y-102108000D03*
X245745000Y-99568000D03*
D17*
X241935000Y-97028000D03*
D10*
X247015000Y-97028000D03*
X236855000Y-97028000D03*
X46355000Y-116078000D03*
X56515000Y-116078000D03*
D17*
X51435000Y-116078000D03*
D18*
X55245000Y-118618000D03*
X48895000Y-121158000D03*
X67945000Y-159258000D03*
X74295000Y-156718000D03*
D17*
X70485000Y-154178000D03*
D10*
X75565000Y-154178000D03*
X65405000Y-154178000D03*
X294005000Y-77978000D03*
X304165000Y-77978000D03*
D17*
X299085000Y-77978000D03*
D18*
X302895000Y-80518000D03*
X296545000Y-83058000D03*
D10*
X160655000Y-97028000D03*
X170815000Y-97028000D03*
D17*
X165735000Y-97028000D03*
D18*
X169545000Y-99568000D03*
X163195000Y-102108000D03*
D10*
X84455000Y-135128000D03*
X94615000Y-135128000D03*
D17*
X89535000Y-135128000D03*
D18*
X93345000Y-137668000D03*
X86995000Y-140208000D03*
X48895000Y-83058000D03*
X55245000Y-80518000D03*
D17*
X51435000Y-77978000D03*
D10*
X56515000Y-77978000D03*
X46355000Y-77978000D03*
D18*
X125095000Y-83058000D03*
X131445000Y-80518000D03*
D17*
X127635000Y-77978000D03*
D10*
X132715000Y-77978000D03*
X122555000Y-77978000D03*
X255905000Y-77978000D03*
X266065000Y-77978000D03*
D17*
X260985000Y-77978000D03*
D18*
X264795000Y-80518000D03*
X258445000Y-83058000D03*
X163195000Y-159258000D03*
X169545000Y-156718000D03*
D17*
X165735000Y-154178000D03*
D10*
X170815000Y-154178000D03*
X160655000Y-154178000D03*
X160655000Y-135128000D03*
X170815000Y-135128000D03*
D17*
X165735000Y-135128000D03*
D18*
X169545000Y-137668000D03*
X163195000Y-140208000D03*
X29845000Y-121158000D03*
X36195000Y-118618000D03*
D17*
X32385000Y-116078000D03*
D10*
X37465000Y-116078000D03*
X27305000Y-116078000D03*
D18*
X144145000Y-102108000D03*
X150495000Y-99568000D03*
D17*
X146685000Y-97028000D03*
D10*
X151765000Y-97028000D03*
X141605000Y-97028000D03*
X236855000Y-135128000D03*
X247015000Y-135128000D03*
D17*
X241935000Y-135128000D03*
D18*
X245745000Y-137668000D03*
X239395000Y-140208000D03*
D10*
X27305000Y-154178000D03*
X37465000Y-154178000D03*
D17*
X32385000Y-154178000D03*
D18*
X36195000Y-156718000D03*
X29845000Y-159258000D03*
D10*
X84455000Y-116078000D03*
X94615000Y-116078000D03*
D17*
X89535000Y-116078000D03*
D18*
X93345000Y-118618000D03*
X86995000Y-121158000D03*
X163195000Y-121158000D03*
X169545000Y-118618000D03*
D17*
X165735000Y-116078000D03*
D10*
X170815000Y-116078000D03*
X160655000Y-116078000D03*
D18*
X258445000Y-140208000D03*
X264795000Y-137668000D03*
D17*
X260985000Y-135128000D03*
D10*
X266065000Y-135128000D03*
X255905000Y-135128000D03*
X122555000Y-135128000D03*
X132715000Y-135128000D03*
D17*
X127635000Y-135128000D03*
D18*
X131445000Y-137668000D03*
X125095000Y-140208000D03*
D10*
X103505000Y-77978000D03*
X113665000Y-77978000D03*
D17*
X108585000Y-77978000D03*
D18*
X112395000Y-80518000D03*
X106045000Y-83058000D03*
D10*
X198755000Y-77978000D03*
X208915000Y-77978000D03*
D17*
X203835000Y-77978000D03*
D18*
X207645000Y-80518000D03*
X201295000Y-83058000D03*
X277495000Y-83058000D03*
X283845000Y-80518000D03*
D17*
X280035000Y-77978000D03*
D10*
X285115000Y-77978000D03*
X274955000Y-77978000D03*
D18*
X86995000Y-83058000D03*
X93345000Y-80518000D03*
D17*
X89535000Y-77978000D03*
D10*
X94615000Y-77978000D03*
X84455000Y-77978000D03*
X217805000Y-77978000D03*
X227965000Y-77978000D03*
D17*
X222885000Y-77978000D03*
D18*
X226695000Y-80518000D03*
X220345000Y-83058000D03*
X239395000Y-83058000D03*
X245745000Y-80518000D03*
D17*
X241935000Y-77978000D03*
D10*
X247015000Y-77978000D03*
X236855000Y-77978000D03*
X141605000Y-154178000D03*
X151765000Y-154178000D03*
D17*
X146685000Y-154178000D03*
D18*
X150495000Y-156718000D03*
X144145000Y-159258000D03*
D10*
X179705000Y-154178000D03*
X189865000Y-154178000D03*
D17*
X184785000Y-154178000D03*
D18*
X188595000Y-156718000D03*
X182245000Y-159258000D03*
D10*
X65405000Y-77978000D03*
X75565000Y-77978000D03*
D17*
X70485000Y-77978000D03*
D18*
X74295000Y-80518000D03*
X67945000Y-83058000D03*
X86995000Y-102108000D03*
X93345000Y-99568000D03*
D17*
X89535000Y-97028000D03*
D10*
X94615000Y-97028000D03*
X84455000Y-97028000D03*
D20*
X235191201Y-32650399D03*
X235191201Y-35150399D03*
X232041201Y-35150399D03*
X232041201Y-32650399D03*
X289560000Y-27940000D03*
X287060000Y-27940000D03*
X287020000Y-30480000D03*
X287020000Y-32980000D03*
D21*
X25400000Y-38100000D03*
D22*
X25400000Y-45720000D03*
X27940000Y-49098200D03*
D21*
X27940000Y-41478200D03*
X30480000Y-44018200D03*
D22*
X30480000Y-51638200D03*
D21*
X33020000Y-46558200D03*
D22*
X33020000Y-54178200D03*
D21*
X35560000Y-49098200D03*
D22*
X35560000Y-56718200D03*
X40640000Y-45720000D03*
D21*
X40640000Y-38100000D03*
D22*
X43180000Y-49098200D03*
D21*
X43180000Y-41478200D03*
X45720000Y-44018200D03*
D22*
X45720000Y-51638200D03*
X48260000Y-54178200D03*
D21*
X48260000Y-46558200D03*
X50800000Y-49098200D03*
D22*
X50800000Y-56718200D03*
X55880000Y-45720000D03*
D21*
X55880000Y-38100000D03*
X58420000Y-41478200D03*
D22*
X58420000Y-49098200D03*
X60960000Y-51638200D03*
D21*
X60960000Y-44018200D03*
X63500000Y-46558200D03*
D22*
X63500000Y-54178200D03*
X66040000Y-56718200D03*
D21*
X66040000Y-49098200D03*
X71120000Y-38100000D03*
D22*
X71120000Y-45720000D03*
X73660000Y-49098200D03*
D21*
X73660000Y-41478200D03*
X76200000Y-44018200D03*
D22*
X76200000Y-51638200D03*
X78740000Y-54178200D03*
D21*
X78740000Y-46558200D03*
X81280000Y-49098200D03*
D22*
X81280000Y-56718200D03*
D21*
X86360000Y-38100000D03*
D22*
X86360000Y-45720000D03*
D21*
X88900000Y-41478200D03*
D22*
X88900000Y-49098200D03*
X91440000Y-51638200D03*
D21*
X91440000Y-44018200D03*
X93980000Y-46558200D03*
D22*
X93980000Y-54178200D03*
X101600000Y-45720000D03*
D21*
X101600000Y-38100000D03*
X104140000Y-41478200D03*
D22*
X104140000Y-49098200D03*
D21*
X106680000Y-44018200D03*
D22*
X106680000Y-51638200D03*
X109220000Y-54178200D03*
D21*
X109220000Y-46558200D03*
D22*
X96520000Y-56718200D03*
D21*
X96520000Y-49098200D03*
X114300000Y-38100000D03*
D22*
X114300000Y-45720000D03*
X116840000Y-49098200D03*
D21*
X116840000Y-41478200D03*
D22*
X119380000Y-51638200D03*
D21*
X119380000Y-44018200D03*
X121920000Y-46558200D03*
D22*
X121920000Y-54178200D03*
D21*
X124460000Y-49098200D03*
D22*
X124460000Y-56718200D03*
X129540000Y-45720000D03*
D21*
X129540000Y-38100000D03*
X132080000Y-41478200D03*
D22*
X132080000Y-49098200D03*
D21*
X134620000Y-44018200D03*
D22*
X134620000Y-51638200D03*
X137160000Y-54178200D03*
D21*
X137160000Y-46558200D03*
D22*
X139700000Y-56718200D03*
D21*
X139700000Y-49098200D03*
X144780000Y-38100000D03*
D22*
X144780000Y-45720000D03*
X147320000Y-49098200D03*
D21*
X147320000Y-41478200D03*
D22*
X149860000Y-51638200D03*
D21*
X149860000Y-44018200D03*
X152400000Y-46558200D03*
D22*
X152400000Y-54178200D03*
D21*
X154940000Y-49098200D03*
D22*
X154940000Y-56718200D03*
D21*
X160020000Y-38100000D03*
D22*
X160020000Y-45720000D03*
X162560000Y-49098200D03*
D21*
X162560000Y-41478200D03*
D22*
X165100000Y-51638200D03*
D21*
X165100000Y-44018200D03*
X167640000Y-46558200D03*
D22*
X167640000Y-54178200D03*
D21*
X175260000Y-38100000D03*
D22*
X175260000Y-45720000D03*
X177800000Y-49098200D03*
D21*
X177800000Y-41478200D03*
X180340000Y-44018200D03*
D22*
X180340000Y-51638200D03*
X182880000Y-54178200D03*
D21*
X182880000Y-46558200D03*
X170180000Y-49098200D03*
D22*
X170180000Y-56718200D03*
X187960000Y-45720000D03*
D21*
X187960000Y-38100000D03*
X190500000Y-41478200D03*
D22*
X190500000Y-49098200D03*
X193040000Y-51638200D03*
D21*
X193040000Y-44018200D03*
X195580000Y-46558200D03*
D22*
X195580000Y-54178200D03*
D21*
X198120000Y-49098200D03*
D22*
X198120000Y-56718200D03*
D21*
X203200000Y-38100000D03*
D22*
X203200000Y-45720000D03*
X205740000Y-49098200D03*
D21*
X205740000Y-41478200D03*
X208280000Y-44018200D03*
D22*
X208280000Y-51638200D03*
X210820000Y-54178200D03*
D21*
X210820000Y-46558200D03*
D22*
X213360000Y-56718200D03*
D21*
X213360000Y-49098200D03*
D22*
X218440000Y-45720000D03*
D21*
X218440000Y-38100000D03*
X220980000Y-41478200D03*
D22*
X220980000Y-49098200D03*
X223520000Y-51638200D03*
D21*
X223520000Y-44018200D03*
X226060000Y-46558200D03*
D22*
X226060000Y-54178200D03*
D21*
X228600000Y-49098200D03*
D22*
X228600000Y-56718200D03*
D21*
X233680000Y-38100000D03*
D22*
X233680000Y-45720000D03*
X236220000Y-49098200D03*
D21*
X236220000Y-41478200D03*
X238760000Y-44018200D03*
D22*
X238760000Y-51638200D03*
X241300000Y-54178200D03*
D21*
X241300000Y-46558200D03*
D22*
X243840000Y-56718200D03*
D21*
X243840000Y-49098200D03*
D23*
X222270000Y-25920000D03*
D24*
X227350000Y-25920000D03*
X222270000Y-23380000D03*
D23*
X227350000Y-23380000D03*
X245110000Y-31750000D03*
D24*
X250190000Y-31750000D03*
D23*
X267970000Y-26670000D03*
G36*
G01*
X271067127Y-29767127D02*
X271067127Y-29767127D01*
G75*
G02*
X272057077Y-29767127I494975J-494975D01*
G01*
X272057077Y-29767127D01*
G75*
G02*
X272057077Y-30757077I-494975J-494975D01*
G01*
X272057077Y-30757077D01*
G75*
G02*
X271067127Y-30757077I-494975J494975D01*
G01*
X271067127Y-30757077D01*
G75*
G02*
X271067127Y-29767127I494975J494975D01*
G01*
G37*
G36*
G01*
X267412873Y-29922873D02*
X267412873Y-29922873D01*
G75*
G02*
X266422923Y-29922873I-494975J494975D01*
G01*
X266422923Y-29922873D01*
G75*
G02*
X266422923Y-28932923I494975J494975D01*
G01*
X266422923Y-28932923D01*
G75*
G02*
X267412873Y-28932923I494975J-494975D01*
G01*
X267412873Y-28932923D01*
G75*
G02*
X267412873Y-29922873I-494975J-494975D01*
G01*
G37*
X270510000Y-33020000D03*
D12*
X243840000Y-28640000D03*
X243840000Y-24140000D03*
X250340000Y-28640000D03*
X250340000Y-24140000D03*
D21*
X308610000Y-36830000D03*
D22*
X260350000Y-52070000D03*
X306070000Y-36830000D03*
X262890000Y-52070000D03*
X303530000Y-36830000D03*
X265430000Y-52070000D03*
X300990000Y-36830000D03*
X267970000Y-52070000D03*
X298450000Y-36830000D03*
X270510000Y-52070000D03*
X295910000Y-36830000D03*
X273050000Y-52070000D03*
X293370000Y-36830000D03*
X275590000Y-52070000D03*
X290830000Y-36830000D03*
X278130000Y-52070000D03*
X288290000Y-36830000D03*
X280670000Y-52070000D03*
X285750000Y-36830000D03*
X283210000Y-52070000D03*
X283210000Y-36830000D03*
X285750000Y-52070000D03*
X280670000Y-36830000D03*
X288290000Y-52070000D03*
X278130000Y-36830000D03*
X290830000Y-52070000D03*
X275590000Y-36830000D03*
X293370000Y-52070000D03*
X273050000Y-36830000D03*
X295910000Y-52070000D03*
X270510000Y-36830000D03*
X298450000Y-52070000D03*
X267970000Y-36830000D03*
X300990000Y-52070000D03*
X265430000Y-36830000D03*
X303530000Y-52070000D03*
X262890000Y-36830000D03*
X306070000Y-52070000D03*
X260350000Y-36830000D03*
X308610000Y-52070000D03*
D25*
X281940000Y-31750000D03*
X277060000Y-31750000D03*
D26*
X271670000Y-24520000D03*
D27*
X270170000Y-24520000D03*
D22*
X257500000Y-24000000D03*
D21*
X262580000Y-24000000D03*
X262520000Y-28240000D03*
D22*
X257440000Y-28240000D03*
D28*
X227040000Y-32740000D03*
D29*
X227040000Y-35280000D03*
D23*
X230390000Y-29480000D03*
X225290000Y-29480000D03*
X222310000Y-35310000D03*
D24*
X222310000Y-30230000D03*
D23*
X253935700Y-28665200D03*
D24*
X253935700Y-23585200D03*
M02*
